<svg id="Warstwa_1" data-name="Warstwa 1" xmlns="http://www.w3.org/2000/svg" xmlns:xlink="http://www.w3.org/1999/xlink" viewBox="0 0 856.4 724.15"><defs><style>.cls-1{fill:url(#Gradient_bez_nazwy_364);}.cls-2{fill:url(#Nowa_pr贸bka_gradientu_3);}.cls-3{fill:url(#Gradient_bez_nazwy_343);}.cls-4{fill:url(#Nowa_pr贸bka_gradientu_2);}</style><linearGradient id="Gradient_bez_nazwy_364" x1="414.31" y1="10.92" x2="464.17" y2="866.12" gradientUnits="userSpaceOnUse"><stop offset="0" stop-color="#ee7636"/><stop offset="0.04" stop-color="#e06b30"/><stop offset="0.13" stop-color="#ca5927"/><stop offset="0.23" stop-color="#b94c20"/><stop offset="0.35" stop-color="#ae421b"/><stop offset="0.52" stop-color="#a73d18"/><stop offset="1" stop-color="#a53b17"/></linearGradient><linearGradient id="Nowa_pr贸bka_gradientu_3" x1="310.87" y1="301.97" x2="548.63" y2="829.64" gradientUnits="userSpaceOnUse"><stop offset="0" stop-color="#ed6d26"/><stop offset="0.25" stop-color="#d15a20"/><stop offset="0.53" stop-color="#b9491b"/><stop offset="0.79" stop-color="#aa3f18"/><stop offset="1" stop-color="#a53b17"/></linearGradient><linearGradient id="Gradient_bez_nazwy_343" x1="328.64" y1="456.2" x2="813.43" y2="575.83" gradientUnits="userSpaceOnUse"><stop offset="0" stop-color="#ed6b2f"/><stop offset="0.62" stop-color="#c2481f"/><stop offset="1" stop-color="#ad3617"/></linearGradient><linearGradient id="Nowa_pr贸bka_gradientu_2" x1="644.07" y1="336.05" x2="497.6" y2="622.2" gradientUnits="userSpaceOnUse"><stop offset="0" stop-color="#ed6b2f"/><stop offset="0.35" stop-color="#ef792a"/><stop offset="1" stop-color="#f28e21"/></linearGradient></defs><path class="cls-1" d="M856.66,362.49c0,1.33,0,2.66,0,4,0,.59,0,1.18,0,1.77,0,1.29,0,2.57-.08,3.86l0,1c0,1.58-.1,3.15-.17,4.73,0,.12,0,.25,0,.37-.06,1.41-.13,2.82-.22,4.23q0,.3,0,.6-.12,2.15-.27,4.29c0,.67-.1,1.36-.15,2s-.08,1.08-.13,1.62c-.06.86-.13,1.71-.21,2.56l-.06.67c-.12,1.43-.26,2.86-.41,4.29q-.29,2.88-.63,5.76c-.17,1.47-.35,2.95-.55,4.42-.22,1.69-.45,3.38-.7,5.07-.49,3.42-1,6.82-1.63,10.22-.28,1.63-.58,3.25-.89,4.88h0c-.31,1.66-.64,3.32-1,5s-.73,3.51-1.11,5.26c-.31,1.41-.63,2.82-1,4.22,0,.15-.07.31-.11.46q-.66,2.85-1.38,5.69-.39,1.58-.81,3.15c-.36,1.36-.72,2.72-1.09,4.08s-.75,2.71-1.13,4.06q-.81,2.83-1.66,5.65c-.26.86-.53,1.71-.79,2.56-.53,1.68-1.06,3.36-1.61,5-.38,1.16-.77,2.32-1.16,3.47-.31.92-.63,1.84-.95,2.76q-1,2.75-2,5.48c-.33.91-.67,1.82-1,2.73s-.69,1.82-1,2.72q-2,5.34-4.27,10.6l-.09.2c-.68,1.62-1.38,3.23-2.08,4.84q-2.37,5.39-4.91,10.69l-.84,1.75c-1.89,3.89-3.85,7.76-5.88,11.58l-1.91,3.55c-.64,1.17-1.29,2.35-2,3.52s-1.22,2.17-1.83,3.25c-.72,1.25-1.45,2.5-2.18,3.74-.58,1-1.17,2-1.76,3-.43.72-.86,1.43-1.3,2.14q-2,3.35-4.16,6.65c-.62,1-1.25,1.93-1.88,2.89s-1.11,1.7-1.68,2.54-1,1.49-1.5,2.23c-1.5,2.23-3,4.44-4.6,6.63a358.38,358.38,0,0,1-200,138.89l-2.93.77-1.73.44-2.17.55q-5.37,1.33-10.73,2.48c-1.95.43-3.9.83-5.86,1.22l-1.34.26-2.57.49-3.42.62c-1.06.19-2.13.38-3.2.55-1.37.24-2.73.46-4.1.67-2.79.44-5.59.84-8.38,1.21s-5.47.69-8.21,1-5.34.55-8,.77q-6.68.58-13.34.9-2.91.15-5.82.24-7,.24-14,.18l-2.36,0c-3.15,0-6.28-.12-9.41-.25-1.32,0-2.65-.11-4-.18-1-.05-2.05-.1-3.07-.17-2.41-.14-4.82-.31-7.21-.5q-1.58-.12-3.15-.27-6.9-.6-13.71-1.49l-2.31-.3q-15.84-2.13-31.3-5.64l-2.34-.54-2.85-.68q-3-.72-6.05-1.52L401,709.21c-.55-.14-1.09-.3-1.63-.46-.71-.19-1.41-.4-2.12-.6l-2.74-.8c-.8-.23-1.6-.47-2.39-.72l-2.49-.77-.81-.25-2.58-.83c-1-.3-1.91-.62-2.87-.94s-1.64-.54-2.46-.83l-2.7-.93c-.91-.31-1.8-.63-2.69-1l-2.67-1-2.68-1-.15-.06-2.74-1h0c-1.61-.63-3.23-1.26-4.84-1.91q-3.13-1.26-6.24-2.58l-2.53-1.09c-2-.87-4.06-1.78-6.07-2.7-.94-.42-1.88-.86-2.81-1.3q-3-1.38-5.94-2.83l-2.55-1.26-2.54-1.28c-.87-.43-1.73-.88-2.59-1.33s-1.71-.89-2.56-1.34q-13-6.88-25.47-14.82c-1.73-1.1-3.44-2.21-5.15-3.34q-5.49-3.63-10.85-7.48c-1.24-.87-2.47-1.77-3.69-2.67s-2.65-2-4-3c-1.8-1.35-3.58-2.73-5.35-4.12q-1.71-1.35-3.41-2.71c-1.59-1.29-3.18-2.59-4.75-3.9-1.19-1-2.36-2-3.53-3s-2.33-2-3.49-3q-8.17-7.19-15.93-14.87-2.11-2.1-4.2-4.24t-4.28-4.46a360.07,360.07,0,0,1-33.29-41c-1.19-1.71-2.37-3.44-3.53-5.17q-4.36-6.51-8.46-13.24c-1.09-1.8-2.17-3.6-3.23-5.42q-5.56-9.54-10.59-19.5-4.35-8.61-8.25-17.53a362.1,362.1,0,0,1-18.08-51.61l-47.3-176.51-2.71-10.1-4.78-17.85A196.08,196.08,0,0,0,80,219a223.41,223.41,0,0,0-15.38-24.55,117.26,117.26,0,0,0-26.28-26.11q-4.09-2.92-8.68-5.59a109.62,109.62,0,0,0-13.23-6.53c-2.62-1.09-5.12-2-7.46-2.81-3.34-1.12-6.36-2-9-2.61l.34-.09H298.05l11.72,43.74,20.72,77.31,19.59,73.1,14.17,52.88a137.1,137.1,0,0,0,20.37,43.57c.11.15.21.31.33.47q2.87,4,6,7.82a137.27,137.27,0,0,0,190.35,20.62l.85-.67c.68-.54,1.36-1.09,2-1.66.21-.16.42-.33.62-.51.58-.48,1.16-1,1.73-1.48l1.11-1,.75-.67c.67-.6,1.33-1.2,2-1.82s1.55-1.46,2.31-2.21c1.12-1.09,2.21-2.21,3.29-3.34.71-.74,1.41-1.5,2.1-2.26s1.46-1.62,2.17-2.44c.28-.32.56-.64.83-1,1.5-1.75,2.94-3.54,4.34-5.36.52-.67,1-1.34,1.52-2,1.6-2.16,3.15-4.38,4.62-6.64.52-.81,1-1.62,1.55-2.44.31-.5.62-1,.92-1.51s.56-.92.82-1.38.65-1.09,1-1.64.59-1,.88-1.57c.19-.33.37-.67.55-1,.36-.64.7-1.29,1-1.94s.73-1.41,1.09-2.13l.34-.68c.38-.77.76-1.55,1.12-2.34s.81-1.73,1.2-2.61v0q1.44-3.24,2.72-6.55c.42-1.1.83-2.21,1.23-3.32.74-2.1,1.44-4.21,2.08-6.35l.36-1.23c.42-1.43.82-2.88,1.19-4.33q1.11-4.32,1.93-8.71c.12-.59.22-1.18.32-1.77.23-1.34.45-2.69.64-4,.11-.74.21-1.48.3-2.23,0-.28.07-.55.11-.83.09-.8.18-1.6.26-2.4l.12-1.18c0-.36.07-.72.1-1.09s0-.47.06-.71c.06-.84.12-1.68.17-2.53s.09-1.49.12-2.24c0-1.15.09-2.29.11-3.44,0-.87,0-1.75,0-2.62q0-6.11-.55-12.26a.06.06,0,0,1,0,0c-.08-.91-.17-1.81-.27-2.72s-.2-1.7-.31-2.56c-.06-.51-.13-1-.21-1.54l-.09-.65c-.07-.51-.15-1-.23-1.52-.12-.75-.24-1.51-.38-2.26-.16-.94-.33-1.88-.52-2.82s-.41-2.06-.64-3.08c-.18-.85-.38-1.7-.59-2.55s-.46-1.88-.7-2.82l-.15-.58-15.7-58.59L602.72,228,543.05,5.3q9.68,1.26,19.24,3,2.7.5,5.39,1.05,8.42,1.69,16.72,3.79l3.12.8,3.12.83,3.1.86,3.1.88q6.35,1.85,12.61,3.91l2.74.93c1.12.38,2.24.76,3.35,1.16.91.31,1.81.63,2.71,1l3,1.1,2.42.9,1,.4,2.53,1L630,28l2.18.88,2,.8q2.71,1.13,5.43,2.3l2.56,1.12q3.09,1.37,6.15,2.79l2.59,1.22q4.33,2.05,8.63,4.23l2.85,1.46,2.84,1.49L668,45.75q4.23,2.28,8.39,4.69c.93.53,1.85,1.07,2.77,1.61q5.52,3.24,10.93,6.69l2.69,1.73c.9.58,1.79,1.17,2.68,1.76L698.09,64q2.64,1.78,5.28,3.63c1.66,1.16,3.31,2.34,5,3.52,1.86,1.36,3.72,2.73,5.56,4.12q2.49,1.89,4.94,3.81c.85.66,1.68,1.33,2.52,2s1.67,1.33,2.5,2l2.48,2Q735,92.29,743.21,100l2.17,2,1.25,1.19,2,1.91,1.76,1.73,1.74,1.74q6,6,11.76,12.4c.63.69,1.25,1.38,1.87,2.08q3.31,3.7,6.52,7.53c.56.66,1.12,1.33,1.67,2s.92,1.11,1.37,1.67,1.13,1.38,1.68,2.07c.44.53.87,1.06,1.29,1.6.6.74,1.19,1.49,1.78,2.24q7.86,10,15,20.66l1.85,2.77c.62.93,1.23,1.86,1.83,2.8s1.21,1.87,1.8,2.81,1.06,1.67,1.58,2.51q2.76,4.42,5.39,8.94.86,1.44,1.68,2.91,3.39,5.92,6.55,12,1.26,2.4,2.47,4.82,3.48,6.92,6.66,14c.37.8.72,1.6,1.07,2.4q2,4.49,3.84,9.06c.43,1,.85,2.09,1.26,3.13q1.88,4.71,3.61,9.49c.39,1.06.77,2.13,1.15,3.19q.84,2.34,1.62,4.69.45,1.29.87,2.58c.27.8.53,1.61.79,2.42.35,1.08.69,2.17,1,3.26s.68,2.18,1,3.28.66,2.19,1,3.29.59,2,.88,3.06q.68,2.39,1.32,4.79a362.64,362.64,0,0,1,8.05,38.05q.69,4.4,1.26,8.77A358.66,358.66,0,0,1,856.66,362.49Z"/><path class="cls-2" d="M636.49,492.25a77.33,77.33,0,0,0-4.36-15.9c-.11-.27-.36-.91-.76-1.83-2.62-6-11.37-24.35-24-30.45l-.46-.22c-.5.68-1,1.35-1.52,2-1.4,1.82-2.84,3.61-4.34,5.36-.27.33-.55.65-.83,1-.71.82-1.43,1.64-2.17,2.44s-1.39,1.52-2.1,2.26c-1.08,1.13-2.17,2.25-3.29,3.34-.76.75-1.53,1.49-2.31,2.21s-1.31,1.22-2,1.82l-.75.67-1.11,1c-.57.5-1.15,1-1.73,1.48-.2.18-.41.35-.62.51-.67.57-1.35,1.12-2,1.66l-.85.67A137.27,137.27,0,0,1,391,449.61a87,87,0,0,1-6-7.82c-.12-.16-.22-.32-.33-.47a137.1,137.1,0,0,1-20.37-43.57l-14.17-52.88C318,291.28,251.61,233,180.57,194.46c-48.39-26.28-98.94-43.41-142.24-43.73H.34l-.34.09c2.6.65,5.62,1.49,9,2.61,2.34.79,4.84,1.72,7.46,2.81a109.62,109.62,0,0,1,13.23,6.53q4.59,2.67,8.68,5.59a117.26,117.26,0,0,1,26.28,26.11A223.41,223.41,0,0,1,80,219a196.08,196.08,0,0,1,14.34,31.92l4.78,17.85,2.71,10.1,47.3,176.51A362.1,362.1,0,0,0,167.2,507q3.9,8.91,8.25,17.53,5,10,10.59,19.5c1.06,1.82,2.14,3.62,3.23,5.42q4.09,6.72,8.46,13.24c1.16,1.73,2.34,3.46,3.53,5.17a360.07,360.07,0,0,0,33.29,41q2.13,2.25,4.28,4.46t4.2,4.24q7.75,7.68,15.93,14.87c1.16,1,2.32,2,3.49,3s2.34,2,3.53,3c1.57,1.31,3.16,2.61,4.75,3.9q1.69,1.36,3.41,2.71c1.77,1.39,3.55,2.77,5.35,4.12,1.31,1,2.63,2,4,3s2.45,1.8,3.69,2.67q5.36,3.86,10.85,7.48c1.71,1.13,3.42,2.24,5.15,3.34q12.42,7.93,25.47,14.82c.85.45,1.7.9,2.56,1.34s1.72.9,2.59,1.33l2.54,1.28,2.55,1.26q2.94,1.46,5.94,2.83c.93.44,1.87.88,2.81,1.3,2,.92,4,1.83,6.07,2.7l2.53,1.09q3.1,1.32,6.24,2.58c1.61.65,3.23,1.28,4.84,1.91h0l2.74,1,.15.06,2.68,1,2.67,1c.89.32,1.78.64,2.69,1l2.7.93c.82.29,1.64.56,2.46.83s1.91.64,2.87.94l2.58.83.81.25,2.49.77c.79.25,1.59.49,2.39.72l2.74.8c63.08-8.08,148.4-32.08,200-100.46a246.4,246.4,0,0,0,21.38-33.93v0C630.42,551.18,641.25,521.09,636.49,492.25Z"/><path id="w4" class="cls-3" d="M789.88,571a358.38,358.38,0,0,1-200,138.89l-2.93.77-1.73.44-2.17.55q-5.37,1.33-10.73,2.48c-1.95.43-3.9.83-5.86,1.22l-1.34.26-2.57.49-3.42.62c-1.06.19-2.13.38-3.2.55-1.37.24-2.73.46-4.1.67-2.79.44-5.59.84-8.38,1.21s-5.47.69-8.21,1C386.08,736.33,242.4,657.43,175.45,524.53c156.7,39,327.48,8.86,406.71-55q2.24-1.77,4.38-3.65l1.11-1a137.36,137.36,0,0,0,45.69-114.83.06.06,0,0,1,0,0c-.08-.91-.17-1.81-.27-2.72s-.2-1.7-.31-2.56c-.06-.51-.13-1-.21-1.54l-.09-.65c-.07-.51-.15-1-.23-1.52-.12-.75-.24-1.51-.38-2.26-.16-.94-.33-1.88-.52-2.82s-.41-2.06-.64-3.08c-.18-.85-.38-1.7-.59-2.55s-.46-1.88-.7-2.82l-.15-.58c13.35-9.71,32.73-20.21,52.74-18.32,60,5.67,102.09,120.57,108.14,205.55A395.55,395.55,0,0,1,789.88,571Z"/><path id="w5" class="cls-4" d="M847.28,443.82a360.13,360.13,0,0,1-257.43,266l-2.93.77-1.73.44-2.17.55q-5.37,1.33-10.73,2.48c-1.95.43-3.9.83-5.86,1.22l-1.34.26-2.57.49-3.42.62c-1.06.19-2.13.38-3.2.55-1.37.24-2.73.46-4.1.67-2.79.44-5.59.84-8.38,1.21s-5.47.69-8.21,1c64.17-68.59,105-172.29,105-288.35a480.64,480.64,0,0,0-6.92-81.64.06.06,0,0,1,0,0c-.08-.91-.17-1.81-.27-2.72s-.2-1.7-.31-2.56c-.06-.51-.13-1-.21-1.54l-.09-.65c-.07-.51-.15-1-.23-1.52-.12-.75-.24-1.51-.38-2.26-.16-.94-.33-1.88-.52-2.82s-.41-2.06-.64-3.08c-.18-.85-.38-1.7-.59-2.55s-.46-1.88-.7-2.82l-.15-.58-15.7-58.59L602.72,228,543.05,5.3C683.27,23.55,805.44,124,844.31,269.12A358.31,358.31,0,0,1,847.28,443.82Z"/></svg>